<mxfile host="app.diagrams.net" modified="2023-12-13T16:51:36.974Z" agent="Mozilla/5.0 (Windows NT 10.0; Win64; x64) AppleWebKit/537.36 (KHTML, like Gecko) Chrome/118.0.0.0 Safari/537.36 OPR/104.0.0.0" version="22.1.8" etag="VL1kChyVMHAlsr9BOdHT" type="github">
  <diagram name="Page-1" id="j_oBNi9SIwwNfIthrYyd">
    <mxGraphModel>
      <root>
        <mxCell id="0" />
        <mxCell id="1" parent="0" />
      </root>
    </mxGraphModel>
  </diagram>
</mxfile>
